<svg width="353.9" height="75.201" viewBox="0 0 353.9 75.201" xmlns="http://www.w3.org/2000/svg"><g id="svgGroup" stroke-linecap="round" fill-rule="evenodd" font-size="9pt" stroke="#000" stroke-width="0.25mm" fill="none" style="stroke:#000;stroke-width:0.25mm;fill:none"><path d="M 70.5 74 L 61.5 74 L 61.5 0 L 70.5 0 L 70.5 30.3 Q 73.3 26.2 77.6 23.5 A 17.572 17.572 0 0 1 84.725 20.991 A 22.595 22.595 0 0 1 87.7 20.8 A 23.225 23.225 0 0 1 92.765 21.318 Q 97.859 22.456 100.85 26.1 Q 104.975 31.126 105.188 39.209 A 33.764 33.764 0 0 1 105.2 40.1 L 105.2 74 L 96.2 74 L 96.2 41.1 Q 96.2 35.5 93.6 32.1 A 8.42 8.42 0 0 0 87.442 28.753 A 11.979 11.979 0 0 0 86.3 28.7 A 13.23 13.23 0 0 0 79.587 30.566 A 17.586 17.586 0 0 0 77.55 31.95 Q 73.4 35.2 70.5 39.6 L 70.5 74 Z M 283.7 69 L 277.5 75 L 250.6 47.3 L 250.6 74 L 241.6 74 L 241.6 0 L 250.6 0 L 250.6 42.3 L 274.1 21 L 279.3 26.7 L 259.2 44.5 L 283.7 69 Z M 191.4 74 L 182.4 74 L 182.4 22 L 191.1 22 L 191.1 30.7 Q 193.9 26.5 198.25 23.65 A 17.316 17.316 0 0 1 205.356 21.025 A 22.629 22.629 0 0 1 208.6 20.8 A 23.225 23.225 0 0 1 213.665 21.318 Q 218.759 22.456 221.75 26.1 Q 225.875 31.126 226.088 39.209 A 33.764 33.764 0 0 1 226.1 40.1 L 226.1 74 L 217.1 74 L 217.1 41.1 A 19.265 19.265 0 0 0 216.758 37.359 Q 216.319 35.145 215.319 33.397 A 10.966 10.966 0 0 0 214.45 32.1 A 8.579 8.579 0 0 0 208.173 28.747 A 12.061 12.061 0 0 0 207.1 28.7 A 13.122 13.122 0 0 0 200.251 30.664 A 17.353 17.353 0 0 0 198.4 31.95 Q 194.3 35.2 191.4 39.6 L 191.4 74 Z M 288.2 69.8 L 292 62.3 A 18.557 18.557 0 0 0 295.144 64.426 Q 296.698 65.27 298.55 65.95 A 24.073 24.073 0 0 0 306.161 67.387 A 27.464 27.464 0 0 0 307 67.4 Q 312.392 67.4 315.235 65.685 A 7.738 7.738 0 0 0 315.45 65.55 Q 318.3 63.7 318.3 60.8 A 7.123 7.123 0 0 0 317.986 58.653 A 6.212 6.212 0 0 0 317.25 57.1 A 6.384 6.384 0 0 0 316.321 56.006 Q 315.307 55.034 313.634 54.081 A 22.3 22.3 0 0 0 313.4 53.95 A 28.462 28.462 0 0 0 311.406 52.957 Q 309.29 51.995 306.301 50.946 A 103.602 103.602 0 0 0 305.3 50.6 A 46.616 46.616 0 0 1 300.902 48.857 Q 298.788 47.883 297.112 46.795 A 19.335 19.335 0 0 1 294.35 44.65 A 11.324 11.324 0 0 1 291.056 38.654 A 16.794 16.794 0 0 1 290.7 35.1 Q 290.7 29.1 295.95 24.95 Q 300.354 21.469 307.608 20.908 A 37.527 37.527 0 0 1 310.5 20.8 A 40.794 40.794 0 0 1 314.946 21.031 Q 317.254 21.284 319.27 21.815 A 25.234 25.234 0 0 1 319.4 21.85 Q 323.3 22.9 326.4 24.5 L 323.9 31.9 Q 321.2 30.3 317.75 29.3 A 25.024 25.024 0 0 0 313.267 28.453 A 31.837 31.837 0 0 0 310.1 28.3 A 20.632 20.632 0 0 0 307.163 28.495 Q 304.077 28.94 302.2 30.4 A 9.322 9.322 0 0 0 300.842 31.673 Q 300.14 32.492 299.805 33.365 A 4.529 4.529 0 0 0 299.5 35 A 4.921 4.921 0 0 0 300.995 38.552 A 7.082 7.082 0 0 0 301.6 39.1 A 9.88 9.88 0 0 0 302.9 39.969 Q 305.173 41.271 309.598 42.734 A 84.459 84.459 0 0 0 309.8 42.8 A 67.753 67.753 0 0 1 314.862 44.698 Q 320.789 47.217 323.6 50.1 Q 327.5 54.1 327.5 60.1 Q 327.5 66.848 322.249 70.855 A 16.618 16.618 0 0 1 321.85 71.15 Q 317.11 74.547 309.662 75.095 A 40.423 40.423 0 0 1 306.7 75.2 Q 300.8 75.2 296.05 73.7 A 30.883 30.883 0 0 1 292.21 72.215 Q 290.229 71.284 288.648 70.136 A 18.229 18.229 0 0 1 288.2 69.8 Z M 31 74 L 21.5 74 L 21.5 12.4 L 0 12.4 L 0 4 L 52.5 4 L 52.5 12.4 L 31 12.4 L 31 74 Z M 156.3 26.2 L 156.3 22 L 164.5 22 L 164.5 61.4 A 12.15 12.15 0 0 0 164.602 63.036 Q 164.934 65.47 166.35 66.35 Q 168.2 67.5 170.4 67.5 L 168.5 74.5 A 17.722 17.722 0 0 1 164.235 74.028 Q 158.598 72.628 157.003 67.08 A 13.59 13.59 0 0 1 156.9 66.7 A 21.307 21.307 0 0 1 153.79 70.126 A 28.498 28.498 0 0 1 150.65 72.55 Q 146.7 75.2 140.6 75.2 Q 134.1 75.2 128.8 71.9 A 22.947 22.947 0 0 1 121.387 64.373 A 27.923 27.923 0 0 1 120.35 62.55 A 27.228 27.228 0 0 1 117.72 54.608 A 36.644 36.644 0 0 1 117.2 48.3 A 33.142 33.142 0 0 1 118.197 40.031 A 27.968 27.968 0 0 1 120.35 34.3 Q 123.5 28.1 129.05 24.45 A 22.297 22.297 0 0 1 140.245 20.844 A 27.388 27.388 0 0 1 141.8 20.8 A 22.584 22.584 0 0 1 146.594 21.29 A 18.703 18.703 0 0 1 149.95 22.35 A 26.002 26.002 0 0 1 154.237 24.644 A 22.103 22.103 0 0 1 156.3 26.2 Z M 350.8 53.3 L 343.4 53.3 L 342.1 26 L 342.1 1.1 L 352.1 1.1 L 352.1 26 L 350.8 53.3 Z M 155.5 60.7 L 155.5 32.8 Q 152.8 30.9 149.55 29.75 Q 146.3 28.6 142.7 28.6 A 15.924 15.924 0 0 0 137.729 29.354 A 14.024 14.024 0 0 0 134.25 31.05 A 16.301 16.301 0 0 0 129.231 36.474 A 19.962 19.962 0 0 0 128.5 37.85 A 20.663 20.663 0 0 0 126.747 43.527 A 27.678 27.678 0 0 0 126.4 48 Q 126.4 53.6 128.5 57.95 A 17.602 17.602 0 0 0 131.606 62.496 A 15.697 15.697 0 0 0 134.3 64.75 Q 138 67.2 142.6 67.2 Q 146.4 67.2 149.8 65.35 Q 153.2 63.5 155.5 60.7 Z M 342.563 73.262 A 6.418 6.418 0 0 0 347.2 75.2 A 8.605 8.605 0 0 0 347.822 75.178 A 6.461 6.461 0 0 0 352 73.35 Q 353.9 71.5 353.9 68.5 A 6.225 6.225 0 0 0 353.321 65.829 A 6.955 6.955 0 0 0 351.85 63.8 A 8.478 8.478 0 0 0 351.329 63.331 A 6.325 6.325 0 0 0 347.2 61.8 A 8.813 8.813 0 0 0 345.347 61.985 A 5.979 5.979 0 0 0 342.3 63.6 A 5.927 5.927 0 0 0 340.732 66.44 A 8.624 8.624 0 0 0 340.5 68.5 Q 340.5 71.2 342.5 73.2 A 8.317 8.317 0 0 0 342.563 73.262 Z" vector-effect="non-scaling-stroke"/></g></svg>